<?xml version="1.0" encoding="UTF-8" standalone="no"?>
<!DOCTYPE svg PUBLIC "-//W3C//DTD SVG 1.1//EN"
 "http://www.w3.org/Graphics/SVG/1.1/DTD/svg11.dtd">
<!-- Generated by graphviz version 2.43.0 (0)
 -->
<!-- Title: pipeline_dag Pages: 1 -->
<svg width="1158pt" height="1392pt"
 viewBox="0.00 0.00 1158.38 1392.40" xmlns="http://www.w3.org/2000/svg" xmlns:xlink="http://www.w3.org/1999/xlink">
<g id="graph0" class="graph" transform="scale(1 1) rotate(0) translate(4 1388.4)">
<title>pipeline_dag</title>
<polygon fill="white" stroke="transparent" points="-4,4 -4,-1388.4 1154.38,-1388.4 1154.38,4 -4,4"/>
<!-- v0 -->
<g id="node1" class="node">
<title>v0</title>
<ellipse fill="black" stroke="black" cx="423.8" cy="-1365.8" rx="3.6" ry="3.6"/>
<text text-anchor="middle" x="355.2" y="-1373.2" font-family="Times,serif" font-size="14.00">Channel.fromPath</text>
</g>
<!-- v1 -->
<g id="node2" class="node">
<title>v1</title>
<ellipse fill="none" stroke="black" cx="423.8" cy="-1307.7" rx="3.5" ry="3.5"/>
<text text-anchor="middle" x="391.3" y="-1315" font-family="Times,serif" font-size="14.00">splitCsv</text>
</g>
<!-- v0&#45;&gt;v1 -->
<g id="edge1" class="edge">
<title>v0&#45;&gt;v1</title>
<path fill="none" stroke="black" d="M423.8,-1362.09C423.8,-1354.86 423.8,-1334.73 423.8,-1321.36"/>
<polygon fill="black" stroke="black" points="427.3,-1321.25 423.8,-1311.25 420.3,-1321.25 427.3,-1321.25"/>
</g>
<!-- v2 -->
<g id="node3" class="node">
<title>v2</title>
<ellipse fill="none" stroke="black" cx="423.8" cy="-1263.7" rx="3.5" ry="3.5"/>
<text text-anchor="middle" x="404.8" y="-1271" font-family="Times,serif" font-size="14.00">map</text>
</g>
<!-- v1&#45;&gt;v2 -->
<g id="edge2" class="edge">
<title>v1&#45;&gt;v2</title>
<path fill="none" stroke="black" d="M423.8,-1303.94C423.8,-1298.67 423.8,-1286.83 423.8,-1277.52"/>
<polygon fill="black" stroke="black" points="427.3,-1277.52 423.8,-1267.52 420.3,-1277.52 427.3,-1277.52"/>
</g>
<!-- v3 -->
<g id="node4" class="node">
<title>v3</title>
<ellipse fill="none" stroke="black" cx="423.8" cy="-1191.2" rx="198.47" ry="18"/>
<text text-anchor="middle" x="423.8" y="-1187.5" font-family="Times,serif" font-size="14.00">DATA_ACQUISITION:fetch_data:LOCATE</text>
</g>
<!-- v2&#45;&gt;v3 -->
<g id="edge3" class="edge">
<title>v2&#45;&gt;v3</title>
<path fill="none" stroke="black" d="M423.8,-1260.02C423.8,-1253.36 423.8,-1235.44 423.8,-1219.69"/>
<polygon fill="black" stroke="black" points="427.3,-1219.3 423.8,-1209.3 420.3,-1219.3 427.3,-1219.3"/>
<text text-anchor="middle" x="464.8" y="-1231" font-family="Times,serif" font-size="14.00">samples_ch</text>
</g>
<!-- v9 -->
<g id="node5" class="node">
<title>v9</title>
<ellipse fill="none" stroke="black" cx="562.8" cy="-1118.7" rx="3.5" ry="3.5"/>
<text text-anchor="middle" x="545.8" y="-1126" font-family="Times,serif" font-size="14.00">mix</text>
</g>
<!-- v3&#45;&gt;v9 -->
<g id="edge4" class="edge">
<title>v3&#45;&gt;v9</title>
<path fill="none" stroke="black" d="M439.51,-1173.04C450.39,-1162.13 465.76,-1148.54 481.8,-1140.2 503.95,-1128.68 532.93,-1123.38 549.55,-1121.15"/>
<polygon fill="black" stroke="black" points="549.99,-1124.62 559.52,-1119.99 549.18,-1117.67 549.99,-1124.62"/>
<text text-anchor="middle" x="538.8" y="-1144" font-family="Times,serif" font-size="14.00">collapsed_reads</text>
</g>
<!-- v7 -->
<g id="node6" class="node">
<title>v7</title>
<ellipse fill="none" stroke="black" cx="423.8" cy="-1118.7" rx="3.5" ry="3.5"/>
<text text-anchor="middle" x="403.3" y="-1126" font-family="Times,serif" font-size="14.00">view</text>
</g>
<!-- v3&#45;&gt;v7 -->
<g id="edge5" class="edge">
<title>v3&#45;&gt;v7</title>
<path fill="none" stroke="black" d="M423.8,-1173.13C423.8,-1160.58 423.8,-1143.79 423.8,-1132.4"/>
<polygon fill="black" stroke="black" points="427.3,-1132.36 423.8,-1122.36 420.3,-1132.36 427.3,-1132.36"/>
</g>
<!-- v10 -->
<g id="node11" class="node">
<title>v10</title>
<ellipse fill="none" stroke="black" cx="562.8" cy="-1074.7" rx="3.5" ry="3.5"/>
<text text-anchor="middle" x="518.3" y="-1082" font-family="Times,serif" font-size="14.00">groupTuple</text>
</g>
<!-- v9&#45;&gt;v10 -->
<g id="edge9" class="edge">
<title>v9&#45;&gt;v10</title>
<path fill="none" stroke="black" d="M562.8,-1114.94C562.8,-1109.67 562.8,-1097.83 562.8,-1088.52"/>
<polygon fill="black" stroke="black" points="566.3,-1088.52 562.8,-1078.52 559.3,-1088.52 566.3,-1088.52"/>
</g>
<!-- v8 -->
<g id="node10" class="node">
<title>v8</title>
<ellipse fill="black" stroke="black" cx="423.8" cy="-1074.7" rx="1.8" ry="1.8"/>
</g>
<!-- v7&#45;&gt;v8 -->
<g id="edge8" class="edge">
<title>v7&#45;&gt;v8</title>
<path fill="none" stroke="black" d="M423.8,-1114.94C423.8,-1109.39 423.8,-1096.56 423.8,-1087.07"/>
<polygon fill="black" stroke="black" points="427.3,-1087 423.8,-1077 420.3,-1087 427.3,-1087"/>
</g>
<!-- v4 -->
<g id="node7" class="node">
<title>v4</title>
<ellipse fill="black" stroke="black" cx="456.8" cy="-1365.8" rx="3.6" ry="3.6"/>
<text text-anchor="middle" x="398.7" y="-1351" font-family="Times,serif" font-size="14.00">Channel.empty</text>
</g>
<!-- v5 -->
<g id="node8" class="node">
<title>v5</title>
<ellipse fill="black" stroke="black" cx="456.8" cy="-1307.7" rx="1.8" ry="1.8"/>
</g>
<!-- v4&#45;&gt;v5 -->
<g id="edge6" class="edge">
<title>v4&#45;&gt;v5</title>
<path fill="none" stroke="black" d="M456.8,-1362.09C456.8,-1354.64 456.8,-1333.46 456.8,-1320.12"/>
<polygon fill="black" stroke="black" points="460.3,-1319.75 456.8,-1309.75 453.3,-1319.75 460.3,-1319.75"/>
<text text-anchor="middle" x="520.3" y="-1333" font-family="Times,serif" font-size="14.00">needs_processing</text>
</g>
<!-- v6 -->
<g id="node9" class="node">
<title>v6</title>
<ellipse fill="black" stroke="black" cx="643.8" cy="-1191.2" rx="3.6" ry="3.6"/>
<text text-anchor="middle" x="694.7" y="-1198.6" font-family="Times,serif" font-size="14.00">Channel.empty</text>
</g>
<!-- v6&#45;&gt;v9 -->
<g id="edge7" class="edge">
<title>v6&#45;&gt;v9</title>
<path fill="none" stroke="black" d="M642.02,-1187.72C639.59,-1184.35 635.03,-1178.19 630.8,-1173.2 617.78,-1157.85 615.68,-1152.56 599.8,-1140.2 592.1,-1134.21 582.43,-1128.92 574.91,-1125.21"/>
<polygon fill="black" stroke="black" points="576.22,-1121.96 565.67,-1120.92 573.27,-1128.31 576.22,-1121.96"/>
<text text-anchor="middle" x="697.3" y="-1144" font-family="Times,serif" font-size="14.00">newly_collapsed_reads</text>
</g>
<!-- v11 -->
<g id="node12" class="node">
<title>v11</title>
<ellipse fill="none" stroke="black" cx="562.8" cy="-1030.6" rx="3.5" ry="3.5"/>
<text text-anchor="middle" x="543.8" y="-1037.9" font-family="Times,serif" font-size="14.00">map</text>
</g>
<!-- v10&#45;&gt;v11 -->
<g id="edge10" class="edge">
<title>v10&#45;&gt;v11</title>
<path fill="none" stroke="black" d="M562.8,-1070.94C562.8,-1065.65 562.8,-1053.78 562.8,-1044.45"/>
<polygon fill="black" stroke="black" points="566.3,-1044.43 562.8,-1034.43 559.3,-1044.43 566.3,-1044.43"/>
</g>
<!-- v13 -->
<g id="node13" class="node">
<title>v13</title>
<ellipse fill="none" stroke="black" cx="716.8" cy="-958" rx="151.37" ry="18"/>
<text text-anchor="middle" x="716.8" y="-954.3" font-family="Times,serif" font-size="14.00">QUALITY_CONTROL:GET_RPF</text>
</g>
<!-- v11&#45;&gt;v13 -->
<g id="edge11" class="edge">
<title>v11&#45;&gt;v13</title>
<path fill="none" stroke="black" d="M565.74,-1028.25C578.71,-1022.31 631.97,-997.89 671.59,-979.73"/>
<polygon fill="black" stroke="black" points="673.2,-982.84 680.83,-975.49 670.28,-976.48 673.2,-982.84"/>
<text text-anchor="middle" x="669.3" y="-997.8" font-family="Times,serif" font-size="14.00">samples</text>
</g>
<!-- v19 -->
<g id="node18" class="node">
<title>v19</title>
<ellipse fill="none" stroke="black" cx="593.8" cy="-841.5" rx="3.5" ry="3.5"/>
<text text-anchor="middle" x="576.8" y="-848.8" font-family="Times,serif" font-size="14.00">join</text>
</g>
<!-- v11&#45;&gt;v19 -->
<g id="edge19" class="edge">
<title>v11&#45;&gt;v19</title>
<path fill="none" stroke="black" d="M562.36,-1026.7C561.17,-1018.68 557.89,-995.45 556.8,-976 555.91,-960.02 553.91,-955.74 556.8,-940 562.77,-907.43 579.09,-871.64 587.93,-853.85"/>
<polygon fill="black" stroke="black" points="591.11,-855.32 592.55,-844.82 584.88,-852.13 591.11,-855.32"/>
<text text-anchor="middle" x="594.3" y="-910.8" font-family="Times,serif" font-size="14.00">samples</text>
</g>
<!-- v15 -->
<g id="node15" class="node">
<title>v15</title>
<ellipse fill="black" stroke="black" cx="728.8" cy="-885.5" rx="1.8" ry="1.8"/>
</g>
<!-- v13&#45;&gt;v15 -->
<g id="edge13" class="edge">
<title>v13&#45;&gt;v15</title>
<path fill="none" stroke="black" d="M719.7,-939.93C721.97,-926.64 725.04,-908.59 726.97,-897.25"/>
<polygon fill="black" stroke="black" points="730.43,-897.77 728.66,-887.32 723.53,-896.59 730.43,-897.77"/>
</g>
<!-- v16 -->
<g id="node16" class="node">
<title>v16</title>
<ellipse fill="none" stroke="black" cx="634.8" cy="-885.5" rx="3.5" ry="3.5"/>
<text text-anchor="middle" x="606.3" y="-892.8" font-family="Times,serif" font-size="14.00">branch</text>
</g>
<!-- v13&#45;&gt;v16 -->
<g id="edge14" class="edge">
<title>v13&#45;&gt;v16</title>
<path fill="none" stroke="black" d="M696.95,-939.93C680.49,-925.79 657.78,-906.26 644.86,-895.15"/>
<polygon fill="black" stroke="black" points="646.77,-892.17 636.9,-888.31 642.21,-897.48 646.77,-892.17"/>
</g>
<!-- v14 -->
<g id="node17" class="node">
<title>v14</title>
<ellipse fill="black" stroke="black" cx="703.8" cy="-885.5" rx="1.8" ry="1.8"/>
</g>
<!-- v13&#45;&gt;v14 -->
<g id="edge15" class="edge">
<title>v13&#45;&gt;v14</title>
<path fill="none" stroke="black" d="M713.65,-939.93C711.2,-926.64 707.87,-908.59 705.78,-897.25"/>
<polygon fill="black" stroke="black" points="709.21,-896.52 703.95,-887.32 702.32,-897.79 709.21,-896.52"/>
</g>
<!-- v12 -->
<g id="node14" class="node">
<title>v12</title>
<ellipse fill="black" stroke="black" cx="716.8" cy="-1030.6" rx="3.6" ry="3.6"/>
</g>
<!-- v12&#45;&gt;v13 -->
<g id="edge12" class="edge">
<title>v12&#45;&gt;v13</title>
<path fill="none" stroke="black" d="M716.8,-1026.92C716.8,-1020.25 716.8,-1002.3 716.8,-986.53"/>
<polygon fill="black" stroke="black" points="720.3,-986.13 716.8,-976.13 713.3,-986.13 720.3,-986.13"/>
<text text-anchor="middle" x="766.8" y="-997.8" font-family="Times,serif" font-size="14.00">count_pattern</text>
</g>
<!-- v16&#45;&gt;v19 -->
<g id="edge16" class="edge">
<title>v16&#45;&gt;v19</title>
<path fill="none" stroke="black" d="M632.6,-882.24C627.09,-876.61 612.51,-861.67 602.87,-851.8"/>
<polygon fill="black" stroke="black" points="605.31,-849.28 595.82,-844.57 600.3,-854.17 605.31,-849.28"/>
</g>
<!-- v17 -->
<g id="node19" class="node">
<title>v17</title>
<ellipse fill="none" stroke="black" cx="634.8" cy="-841.5" rx="3.5" ry="3.5"/>
<text text-anchor="middle" x="615.8" y="-848.8" font-family="Times,serif" font-size="14.00">map</text>
</g>
<!-- v16&#45;&gt;v17 -->
<g id="edge17" class="edge">
<title>v16&#45;&gt;v17</title>
<path fill="none" stroke="black" d="M634.8,-881.74C634.8,-876.47 634.8,-864.63 634.8,-855.32"/>
<polygon fill="black" stroke="black" points="638.3,-855.32 634.8,-845.32 631.3,-855.32 638.3,-855.32"/>
</g>
<!-- v20 -->
<g id="node21" class="node">
<title>v20</title>
<ellipse fill="none" stroke="black" cx="593.8" cy="-783.4" rx="3.5" ry="3.5"/>
<text text-anchor="middle" x="574.8" y="-790.7" font-family="Times,serif" font-size="14.00">map</text>
</g>
<!-- v19&#45;&gt;v20 -->
<g id="edge20" class="edge">
<title>v19&#45;&gt;v20</title>
<path fill="none" stroke="black" d="M593.8,-837.79C593.8,-830.56 593.8,-810.43 593.8,-797.06"/>
<polygon fill="black" stroke="black" points="597.3,-796.95 593.8,-786.95 590.3,-796.95 597.3,-796.95"/>
</g>
<!-- v18 -->
<g id="node20" class="node">
<title>v18</title>
<ellipse fill="black" stroke="black" cx="634.8" cy="-783.4" rx="1.8" ry="1.8"/>
</g>
<!-- v17&#45;&gt;v18 -->
<g id="edge18" class="edge">
<title>v17&#45;&gt;v18</title>
<path fill="none" stroke="black" d="M634.8,-837.79C634.8,-830.34 634.8,-809.16 634.8,-795.82"/>
<polygon fill="black" stroke="black" points="638.3,-795.45 634.8,-785.45 631.3,-795.45 638.3,-795.45"/>
<text text-anchor="middle" x="687.8" y="-808.8" font-family="Times,serif" font-size="14.00">failed_samples</text>
</g>
<!-- v23 -->
<g id="node22" class="node">
<title>v23</title>
<ellipse fill="none" stroke="black" cx="675.8" cy="-710.8" rx="133.78" ry="18"/>
<text text-anchor="middle" x="675.8" y="-707.1" font-family="Times,serif" font-size="14.00">ALIGNMENT:STAR_ALIGN</text>
</g>
<!-- v20&#45;&gt;v23 -->
<g id="edge21" class="edge">
<title>v20&#45;&gt;v23</title>
<path fill="none" stroke="black" d="M594.59,-779.85C596.66,-773.55 602.78,-756.99 612.8,-746.8 617.63,-741.88 623.3,-737.46 629.23,-733.55"/>
<polygon fill="black" stroke="black" points="631.31,-736.38 638.02,-728.19 627.66,-730.41 631.31,-736.38"/>
<text text-anchor="middle" x="642.3" y="-750.6" font-family="Times,serif" font-size="14.00">samples</text>
</g>
<!-- v28 -->
<g id="node25" class="node">
<title>v28</title>
<ellipse fill="none" stroke="black" cx="858.8" cy="-623.8" rx="165.17" ry="18"/>
<text text-anchor="middle" x="858.8" y="-620.1" font-family="Times,serif" font-size="14.00">ALIGNMENT:SAMTOOLS_INDEX</text>
</g>
<!-- v23&#45;&gt;v28 -->
<g id="edge24" class="edge">
<title>v23&#45;&gt;v28</title>
<path fill="none" stroke="black" d="M711.08,-693.41C740.26,-679.86 781.89,-660.52 813.53,-645.83"/>
<polygon fill="black" stroke="black" points="815.4,-648.82 823,-641.43 812.46,-642.47 815.4,-648.82"/>
<text text-anchor="middle" x="824.8" y="-663.6" font-family="Times,serif" font-size="14.00">genome_bam</text>
</g>
<!-- v26 -->
<g id="node26" class="node">
<title>v26</title>
<ellipse fill="none" stroke="black" cx="349.8" cy="-623.8" rx="199.56" ry="18"/>
<text text-anchor="middle" x="349.8" y="-620.1" font-family="Times,serif" font-size="14.00">ALIGNMENT:SAMTOOLS_COORD_SORT</text>
</g>
<!-- v23&#45;&gt;v26 -->
<g id="edge25" class="edge">
<title>v23&#45;&gt;v26</title>
<path fill="none" stroke="black" d="M617.14,-694.51C562.38,-680.23 480.52,-658.88 421.82,-643.58"/>
<polygon fill="black" stroke="black" points="422.43,-640.12 411.87,-640.98 420.66,-646.89 422.43,-640.12"/>
</g>
<!-- v25 -->
<g id="node27" class="node">
<title>v25</title>
<ellipse fill="black" stroke="black" cx="650.8" cy="-623.8" rx="1.8" ry="1.8"/>
</g>
<!-- v23&#45;&gt;v25 -->
<g id="edge26" class="edge">
<title>v23&#45;&gt;v25</title>
<path fill="none" stroke="black" d="M670.74,-692.6C665.72,-675.54 658.19,-649.94 653.97,-635.57"/>
<polygon fill="black" stroke="black" points="657.3,-634.49 651.12,-625.88 650.58,-636.46 657.3,-634.49"/>
</g>
<!-- v24 -->
<g id="node28" class="node">
<title>v24</title>
<ellipse fill="black" stroke="black" cx="673.8" cy="-623.8" rx="1.8" ry="1.8"/>
</g>
<!-- v23&#45;&gt;v24 -->
<g id="edge27" class="edge">
<title>v23&#45;&gt;v24</title>
<path fill="none" stroke="black" d="M675.4,-692.6C675,-675.72 674.4,-650.46 674.06,-636.02"/>
<polygon fill="black" stroke="black" points="677.56,-635.8 673.83,-625.88 670.56,-635.96 677.56,-635.8"/>
</g>
<!-- v30 -->
<g id="node31" class="node">
<title>v30</title>
<ellipse fill="none" stroke="black" cx="1040.8" cy="-536.8" rx="3.5" ry="3.5"/>
<text text-anchor="middle" x="1023.8" y="-544.1" font-family="Times,serif" font-size="14.00">join</text>
</g>
<!-- v23&#45;&gt;v30 -->
<g id="edge32" class="edge">
<title>v23&#45;&gt;v30</title>
<path fill="none" stroke="black" d="M790.82,-701.48C881.74,-692.51 998.8,-674.83 1032.8,-641.8 1057.56,-617.75 1049.89,-571.87 1044.35,-549.99"/>
<polygon fill="black" stroke="black" points="1047.68,-548.9 1041.6,-540.23 1040.94,-550.8 1047.68,-548.9"/>
<text text-anchor="middle" x="1095.8" y="-620.1" font-family="Times,serif" font-size="14.00">genome_bam</text>
</g>
<!-- v21 -->
<g id="node23" class="node">
<title>v21</title>
<ellipse fill="black" stroke="black" cx="675.8" cy="-783.4" rx="3.6" ry="3.6"/>
</g>
<!-- v21&#45;&gt;v23 -->
<g id="edge22" class="edge">
<title>v21&#45;&gt;v23</title>
<path fill="none" stroke="black" d="M675.8,-779.72C675.8,-773.05 675.8,-755.1 675.8,-739.33"/>
<polygon fill="black" stroke="black" points="679.3,-738.93 675.8,-728.93 672.3,-738.93 679.3,-738.93"/>
<text text-anchor="middle" x="695.8" y="-750.6" font-family="Times,serif" font-size="14.00">index</text>
</g>
<!-- v22 -->
<g id="node24" class="node">
<title>v22</title>
<ellipse fill="black" stroke="black" cx="738.8" cy="-783.4" rx="3.6" ry="3.6"/>
</g>
<!-- v22&#45;&gt;v23 -->
<g id="edge23" class="edge">
<title>v22&#45;&gt;v23</title>
<path fill="none" stroke="black" d="M737.64,-779.98C734.69,-773.98 726.45,-758.05 716.8,-746.8 713.46,-742.9 709.67,-739.07 705.77,-735.45"/>
<polygon fill="black" stroke="black" points="708.05,-732.8 698.24,-728.8 703.42,-738.04 708.05,-732.8"/>
<text text-anchor="middle" x="737.3" y="-750.6" font-family="Times,serif" font-size="14.00">gtf</text>
</g>
<!-- v28&#45;&gt;v30 -->
<g id="edge30" class="edge">
<title>v28&#45;&gt;v30</title>
<path fill="none" stroke="black" d="M890.63,-606.03C909.91,-596.04 935.08,-583.31 957.8,-572.8 982.46,-561.39 1011.87,-549.35 1028.23,-542.79"/>
<polygon fill="black" stroke="black" points="1029.9,-545.89 1037.9,-538.94 1027.32,-539.38 1029.9,-545.89"/>
<text text-anchor="middle" x="1001.8" y="-576.6" font-family="Times,serif" font-size="14.00">bam_indices</text>
</g>
<!-- v29 -->
<g id="node32" class="node">
<title>v29</title>
<ellipse fill="black" stroke="black" cx="858.8" cy="-536.8" rx="1.8" ry="1.8"/>
</g>
<!-- v28&#45;&gt;v29 -->
<g id="edge31" class="edge">
<title>v28&#45;&gt;v29</title>
<path fill="none" stroke="black" d="M858.8,-605.6C858.8,-588.72 858.8,-563.46 858.8,-549.02"/>
<polygon fill="black" stroke="black" points="862.3,-548.88 858.8,-538.88 855.3,-548.88 862.3,-548.88"/>
</g>
<!-- v31 -->
<g id="node29" class="node">
<title>v31</title>
<ellipse fill="none" stroke="black" cx="250.8" cy="-536.8" rx="228.56" ry="18"/>
<text text-anchor="middle" x="250.8" y="-533.1" font-family="Times,serif" font-size="14.00">POST_PROCESSING:SAMTOOLS_NAME_SORT</text>
</g>
<!-- v26&#45;&gt;v31 -->
<g id="edge28" class="edge">
<title>v26&#45;&gt;v31</title>
<path fill="none" stroke="black" d="M329.77,-605.6C315.01,-592.93 294.75,-575.53 278.45,-561.54"/>
<polygon fill="black" stroke="black" points="280.67,-558.83 270.8,-554.98 276.11,-564.15 280.67,-558.83"/>
<text text-anchor="middle" x="362.3" y="-576.6" font-family="Times,serif" font-size="14.00">processed_data</text>
</g>
<!-- v27 -->
<g id="node30" class="node">
<title>v27</title>
<ellipse fill="black" stroke="black" cx="1.8" cy="-536.8" rx="1.8" ry="1.8"/>
</g>
<!-- v26&#45;&gt;v27 -->
<g id="edge29" class="edge">
<title>v26&#45;&gt;v27</title>
<path fill="none" stroke="black" d="M233.56,-609.09C150.87,-597.54 48.38,-579.03 12.8,-554.8 10.25,-553.06 8.16,-550.52 6.5,-547.93"/>
<polygon fill="black" stroke="black" points="9.52,-546.12 2.06,-538.6 3.2,-549.14 9.52,-546.12"/>
</g>
<!-- v47 -->
<g id="node47" class="node">
<title>v47</title>
<ellipse fill="none" stroke="black" cx="646.8" cy="-536.8" rx="124.58" ry="18"/>
<text text-anchor="middle" x="646.8" y="-533.1" font-family="Times,serif" font-size="14.00">ANALYSIS:RIBOMETRIC</text>
</g>
<!-- v26&#45;&gt;v47 -->
<g id="edge48" class="edge">
<title>v26&#45;&gt;v47</title>
<path fill="none" stroke="black" d="M405.19,-606.4C438.64,-596.54 482.13,-583.82 520.8,-572.8 540.6,-567.16 562.18,-561.12 581.8,-555.68"/>
<polygon fill="black" stroke="black" points="582.85,-559.02 591.55,-552.97 580.98,-552.27 582.85,-559.02"/>
<text text-anchor="middle" x="576.3" y="-576.6" font-family="Times,serif" font-size="14.00">processed_data</text>
</g>
<!-- v34 -->
<g id="node34" class="node">
<title>v34</title>
<ellipse fill="none" stroke="black" cx="448.8" cy="-449.8" rx="188.47" ry="18"/>
<text text-anchor="middle" x="448.8" y="-446.1" font-family="Times,serif" font-size="14.00">POST_PROCESSING:BAM_TO_SQLITE</text>
</g>
<!-- v31&#45;&gt;v34 -->
<g id="edge34" class="edge">
<title>v31&#45;&gt;v34</title>
<path fill="none" stroke="black" d="M289.92,-519.01C321.65,-505.39 366.52,-486.12 400.49,-471.54"/>
<polygon fill="black" stroke="black" points="401.95,-474.72 409.76,-467.56 399.19,-468.29 401.95,-474.72"/>
</g>
<!-- v32 -->
<g id="node35" class="node">
<title>v32</title>
<ellipse fill="black" stroke="black" cx="240.8" cy="-449.8" rx="1.8" ry="1.8"/>
</g>
<!-- v31&#45;&gt;v32 -->
<g id="edge35" class="edge">
<title>v31&#45;&gt;v32</title>
<path fill="none" stroke="black" d="M248.78,-518.6C246.79,-501.72 243.82,-476.46 242.12,-462.02"/>
<polygon fill="black" stroke="black" points="245.57,-461.4 240.93,-451.88 238.62,-462.22 245.57,-461.4"/>
</g>
<!-- v38 -->
<g id="node33" class="node">
<title>v38</title>
<ellipse fill="none" stroke="black" cx="884.8" cy="-290.3" rx="3.5" ry="3.5"/>
<text text-anchor="middle" x="867.8" y="-297.6" font-family="Times,serif" font-size="14.00">join</text>
</g>
<!-- v30&#45;&gt;v38 -->
<g id="edge33" class="edge">
<title>v30&#45;&gt;v38</title>
<path fill="none" stroke="black" d="M1039.57,-533.47C1035.77,-526.28 1023.76,-503.82 1012.8,-485.8 969.23,-414.13 912.2,-330.87 892.15,-301.88"/>
<polygon fill="black" stroke="black" points="894.96,-299.79 886.38,-293.57 889.21,-303.78 894.96,-299.79"/>
<text text-anchor="middle" x="1053.3" y="-402.6" font-family="Times,serif" font-size="14.00">sorted_bams_with_index</text>
</g>
<!-- v39 -->
<g id="node40" class="node">
<title>v39</title>
<ellipse fill="none" stroke="black" cx="884.8" cy="-217.8" rx="174.37" ry="18"/>
<text text-anchor="middle" x="884.8" y="-214.1" font-family="Times,serif" font-size="14.00">POST_PROCESSING:BAM_TO_BED</text>
</g>
<!-- v38&#45;&gt;v39 -->
<g id="edge41" class="edge">
<title>v38&#45;&gt;v39</title>
<path fill="none" stroke="black" d="M884.8,-286.62C884.8,-279.96 884.8,-262.04 884.8,-246.29"/>
<polygon fill="black" stroke="black" points="888.3,-245.9 884.8,-235.9 881.3,-245.9 888.3,-245.9"/>
<text text-anchor="middle" x="958.3" y="-257.6" font-family="Times,serif" font-size="14.00">bam_bai_and_offsets</text>
</g>
<!-- v36 -->
<g id="node37" class="node">
<title>v36</title>
<ellipse fill="none" stroke="black" cx="448.8" cy="-362.8" rx="203.36" ry="18"/>
<text text-anchor="middle" x="448.8" y="-359.1" font-family="Times,serif" font-size="14.00">POST_PROCESSING:EXTRACT_OFFSETS</text>
</g>
<!-- v34&#45;&gt;v36 -->
<g id="edge37" class="edge">
<title>v34&#45;&gt;v36</title>
<path fill="none" stroke="black" d="M448.8,-431.6C448.8,-419.96 448.8,-404.35 448.8,-391.04"/>
<polygon fill="black" stroke="black" points="452.3,-390.98 448.8,-380.98 445.3,-390.98 452.3,-390.98"/>
<text text-anchor="middle" x="485.3" y="-402.6" font-family="Times,serif" font-size="14.00">sqlite_dbs</text>
</g>
<!-- v35 -->
<g id="node38" class="node">
<title>v35</title>
<ellipse fill="black" stroke="black" cx="671.8" cy="-362.8" rx="1.8" ry="1.8"/>
</g>
<!-- v34&#45;&gt;v35 -->
<g id="edge38" class="edge">
<title>v34&#45;&gt;v35</title>
<path fill="none" stroke="black" d="M539.83,-433.97C579.95,-424 625.81,-407.59 660.8,-380.8 663.16,-378.99 665.16,-376.53 666.78,-374.03"/>
<polygon fill="black" stroke="black" points="670.01,-375.4 671.4,-364.9 663.76,-372.25 670.01,-375.4"/>
</g>
<!-- v33 -->
<g id="node36" class="node">
<title>v33</title>
<ellipse fill="black" stroke="black" cx="500.8" cy="-536.8" rx="3.6" ry="3.6"/>
</g>
<!-- v33&#45;&gt;v34 -->
<g id="edge36" class="edge">
<title>v33&#45;&gt;v34</title>
<path fill="none" stroke="black" d="M499.3,-533.35C494.23,-525.06 477.33,-497.43 464.46,-476.4"/>
<polygon fill="black" stroke="black" points="467.45,-474.57 459.24,-467.87 461.47,-478.22 467.45,-474.57"/>
<text text-anchor="middle" x="539.8" y="-489.6" font-family="Times,serif" font-size="14.00">annotation_sqlite</text>
</g>
<!-- v36&#45;&gt;v38 -->
<g id="edge39" class="edge">
<title>v36&#45;&gt;v38</title>
<path fill="none" stroke="black" d="M541.8,-346.76C650.62,-329.17 822.2,-301.42 871.28,-293.49"/>
<polygon fill="black" stroke="black" points="872.06,-296.91 881.37,-291.85 870.94,-290 872.06,-296.91"/>
<text text-anchor="middle" x="779.8" y="-315.6" font-family="Times,serif" font-size="14.00">offsets</text>
</g>
<!-- v37 -->
<g id="node39" class="node">
<title>v37</title>
<ellipse fill="black" stroke="black" cx="448.8" cy="-290.3" rx="1.8" ry="1.8"/>
</g>
<!-- v36&#45;&gt;v37 -->
<g id="edge40" class="edge">
<title>v36&#45;&gt;v37</title>
<path fill="none" stroke="black" d="M448.8,-344.73C448.8,-331.59 448.8,-313.79 448.8,-302.43"/>
<polygon fill="black" stroke="black" points="452.3,-302.12 448.8,-292.12 445.3,-302.12 452.3,-302.12"/>
</g>
<!-- v41 -->
<g id="node41" class="node">
<title>v41</title>
<ellipse fill="none" stroke="black" cx="839.8" cy="-145.2" rx="3.5" ry="3.5"/>
<text text-anchor="middle" x="808.8" y="-152.5" font-family="Times,serif" font-size="14.00">flatMap</text>
</g>
<!-- v39&#45;&gt;v41 -->
<g id="edge42" class="edge">
<title>v39&#45;&gt;v41</title>
<path fill="none" stroke="black" d="M855.95,-199.82C849.9,-194.82 844.29,-188.78 840.8,-181.8 837.3,-174.8 837.02,-166.02 837.63,-158.93"/>
<polygon fill="black" stroke="black" points="841.1,-159.39 839.13,-148.98 834.17,-158.34 841.1,-159.39"/>
<text text-anchor="middle" x="878.8" y="-170.6" font-family="Times,serif" font-size="14.00">bedgraphs</text>
</g>
<!-- v40 -->
<g id="node42" class="node">
<title>v40</title>
<ellipse fill="black" stroke="black" cx="930.8" cy="-145.2" rx="1.8" ry="1.8"/>
</g>
<!-- v39&#45;&gt;v40 -->
<g id="edge43" class="edge">
<title>v39&#45;&gt;v40</title>
<path fill="none" stroke="black" d="M902.77,-199.67C907.76,-194.28 912.88,-188.09 916.8,-181.8 921.66,-174.01 925.35,-164.25 927.72,-156.92"/>
<polygon fill="black" stroke="black" points="931.14,-157.72 930.57,-147.14 924.41,-155.76 931.14,-157.72"/>
</g>
<!-- v43 -->
<g id="node43" class="node">
<title>v43</title>
<ellipse fill="none" stroke="black" cx="926.8" cy="-72.6" rx="223.66" ry="18"/>
<text text-anchor="middle" x="926.8" y="-68.9" font-family="Times,serif" font-size="14.00">POST_PROCESSING:BEDGRAPH_TO_BIGWIG</text>
</g>
<!-- v41&#45;&gt;v43 -->
<g id="edge44" class="edge">
<title>v41&#45;&gt;v43</title>
<path fill="none" stroke="black" d="M839.02,-141.67C837.25,-135.42 833.61,-118.97 840.8,-108.6 844.27,-103.59 848.59,-99.3 853.44,-95.62"/>
<polygon fill="black" stroke="black" points="855.58,-98.4 862.02,-89.99 851.74,-92.55 855.58,-98.4"/>
<text text-anchor="middle" x="916.3" y="-112.4" font-family="Times,serif" font-size="14.00">unpacked_bedgraphs</text>
</g>
<!-- v45 -->
<g id="node45" class="node">
<title>v45</title>
<ellipse fill="black" stroke="black" cx="891.8" cy="-1.8" rx="1.8" ry="1.8"/>
</g>
<!-- v43&#45;&gt;v45 -->
<g id="edge46" class="edge">
<title>v43&#45;&gt;v45</title>
<path fill="none" stroke="black" d="M905.49,-54.67C900.41,-49.46 895.64,-43.31 892.8,-36.6 889.76,-29.41 889.61,-20.57 890.16,-13.73"/>
<polygon fill="black" stroke="black" points="893.65,-14.08 891.6,-3.68 886.72,-13.09 893.65,-14.08"/>
<text text-anchor="middle" x="920.8" y="-25.4" font-family="Times,serif" font-size="14.00">bigwigs</text>
</g>
<!-- v44 -->
<g id="node46" class="node">
<title>v44</title>
<ellipse fill="black" stroke="black" cx="962.8" cy="-1.8" rx="1.8" ry="1.8"/>
</g>
<!-- v43&#45;&gt;v44 -->
<g id="edge47" class="edge">
<title>v43&#45;&gt;v44</title>
<path fill="none" stroke="black" d="M938.36,-54.49C941.91,-48.9 945.7,-42.59 948.8,-36.6 952.73,-29 956.4,-20.03 959,-13.25"/>
<polygon fill="black" stroke="black" points="962.36,-14.25 962.5,-3.66 955.78,-11.85 962.36,-14.25"/>
</g>
<!-- v42 -->
<g id="node44" class="node">
<title>v42</title>
<ellipse fill="black" stroke="black" cx="1013.8" cy="-145.2" rx="3.6" ry="3.6"/>
</g>
<!-- v42&#45;&gt;v43 -->
<g id="edge45" class="edge">
<title>v42&#45;&gt;v43</title>
<path fill="none" stroke="black" d="M1012.78,-141.65C1010.15,-135.34 1002.59,-118.76 991.8,-108.6 986.72,-103.82 980.87,-99.49 974.79,-95.63"/>
<polygon fill="black" stroke="black" points="976.19,-92.39 965.8,-90.33 972.64,-98.42 976.19,-92.39"/>
<text text-anchor="middle" x="1046.8" y="-112.4" font-family="Times,serif" font-size="14.00">chrom_sizes</text>
</g>
<!-- v50 -->
<g id="node49" class="node">
<title>v50</title>
<ellipse fill="black" stroke="black" cx="910.8" cy="-449.8" rx="1.8" ry="1.8"/>
</g>
<!-- v47&#45;&gt;v50 -->
<g id="edge50" class="edge">
<title>v47&#45;&gt;v50</title>
<path fill="none" stroke="black" d="M756.54,-528.12C806.61,-522.87 859.26,-514.33 879.8,-500.8 894.02,-491.43 902.87,-473.05 907.31,-461.38"/>
<polygon fill="black" stroke="black" points="910.7,-462.29 910.56,-451.69 904.06,-460.06 910.7,-462.29"/>
<text text-anchor="middle" x="951.3" y="-489.6" font-family="Times,serif" font-size="14.00">ribometric_html</text>
</g>
<!-- v49 -->
<g id="node50" class="node">
<title>v49</title>
<ellipse fill="black" stroke="black" cx="656.8" cy="-449.8" rx="1.8" ry="1.8"/>
</g>
<!-- v47&#45;&gt;v49 -->
<g id="edge51" class="edge">
<title>v47&#45;&gt;v49</title>
<path fill="none" stroke="black" d="M646.17,-518.6C646.05,-508.92 646.32,-496.64 647.8,-485.8 648.94,-477.42 651.38,-468.17 653.43,-461.28"/>
<polygon fill="black" stroke="black" points="656.79,-462.24 656.5,-451.65 650.13,-460.11 656.79,-462.24"/>
<text text-anchor="middle" x="703.8" y="-489.6" font-family="Times,serif" font-size="14.00">ribometric_json</text>
</g>
<!-- v48 -->
<g id="node51" class="node">
<title>v48</title>
<ellipse fill="black" stroke="black" cx="781.8" cy="-449.8" rx="1.8" ry="1.8"/>
</g>
<!-- v47&#45;&gt;v48 -->
<g id="edge52" class="edge">
<title>v47&#45;&gt;v48</title>
<path fill="none" stroke="black" d="M722.08,-522.37C735.76,-517.32 749.07,-510.37 759.8,-500.8 771.35,-490.5 777.11,-473.03 779.77,-461.7"/>
<polygon fill="black" stroke="black" points="783.25,-462.13 781.69,-451.65 776.38,-460.82 783.25,-462.13"/>
<text text-anchor="middle" x="822.8" y="-489.6" font-family="Times,serif" font-size="14.00">ribometric_csv</text>
</g>
<!-- v46 -->
<g id="node48" class="node">
<title>v46</title>
<ellipse fill="black" stroke="black" cx="627.8" cy="-623.8" rx="3.6" ry="3.6"/>
</g>
<!-- v46&#45;&gt;v47 -->
<g id="edge49" class="edge">
<title>v46&#45;&gt;v47</title>
<path fill="none" stroke="black" d="M628.43,-619.97C630.34,-611.45 636.18,-585.31 640.77,-564.78"/>
<polygon fill="black" stroke="black" points="644.2,-565.49 642.96,-554.97 637.36,-563.96 644.2,-565.49"/>
<text text-anchor="middle" x="717.3" y="-576.6" font-family="Times,serif" font-size="14.00">ribometric_annotation</text>
</g>
</g>
</svg>
